# xmcd CD database file
#
# Track frame offsets:
#	150
#	23032
#	40102
#
# Disc length: 837 seconds
#
# Revision: 0
# Processed by: cddbd v1.5.1PL0 Copyright (c) Steve Scherf et al.
# Submitted via: CDex 1.50beta9
#
DISCID=18034303
DTITLE=メロン記念日 - シャンパンの恋
DYEAR=2004
DGENRE=JPop
TTITLE0=シャンパンの恋
TTITLE1=恋の仕組み。
TTITLE2=シャンパンの恋(Instrumental)
EXTD=YEAR: 2004
EXTT0=
EXTT1=
EXTT2=
PLAYORDER=
